<?xml version="1.0" encoding="utf-8"?>
<!-- Generator: Adobe Illustrator 18.1.1, SVG Export Plug-In . SVG Version: 6.00 Build 0)  -->
<!DOCTYPE svg PUBLIC "-//W3C//DTD SVG 1.1//EN" "http://www.w3.org/Graphics/SVG/1.1/DTD/svg11.dtd">
<svg version="1.1" id="Layer_1" xmlns="http://www.w3.org/2000/svg" xmlns:xlink="http://www.w3.org/1999/xlink" x="0px" y="0px"
	 width="960px" height="560px" viewBox="0 0 960 560" style="enable-background:new 0 0 960 560;" xml:space="preserve">
<style type="text/css">
	.st0{fill:#3B3A33;}
</style>
<g>
	<path class="st0" d="M372.9,239.4l0.3-0.3c0.4-1.8,1.1-7.9-4.1-13.7c-5.2-5.7-11.4-5.9-13.2-5.8l-0.1,0.1c0,2.1,0.3,9,5.3,14.9
		C366.2,240.5,371.3,239.8,372.9,239.4z"/>
	<path class="st0" d="M477.7,310.8c3.6-4.2,3.8-9.2,3.8-10.7l-0.1-0.1c-1.3-0.1-5.8,0.1-9.5,4.2c-0.7,0.7-1.2,1.5-1.6,2.3v-16.1
		c3.2,3.2,7.4,5.1,11.9,5.1h48.7c6.4,0,12.1-3.8,15.3-9.5h10.6c10,0,18.2-9.3,18.2-20.7v-19.2c1.7,0.1,4.6-0.4,7.4-3.7
		c3.6-4.3,3.9-9.3,3.8-10.8l0-0.1c-1.3-0.1-5.8,0.1-9.6,4.2c-0.7,0.7-1.2,1.4-1.6,2.1v-1.2c0-2-1.4-3.6-3.1-3.6
		c-1.7,0-3.1,1.6-3.1,3.6v14.8c-0.1-0.1-0.2-0.2-0.2-0.3c-3.8-4.1-8.3-4.3-9.6-4.2l0,0.1c0,1.5,0.2,6.5,3.8,10.8
		c2.2,2.6,4.4,3.4,6.1,3.6v3.8c0,7.5-5.3,13.6-11.9,13.6h-8.1c0.2-1,0.3-2.1,0.3-3.2c0.2-1.6,0.3-5.1-2.8-8.5
		c-3.4-3.7-7.4-3.9-8.6-3.8l0,0.1c0,1.4,0.2,5.9,3.5,9.7c0.6,0.7,1.2,1.2,1.7,1.7c0,0,0,0,0,0c0,7.5-5.3,13.6-11.9,13.6h-11.5
		c2.8-3.6,4.5-8.4,4.5-13.6v-27.2c2.2,0.3,6.6,0,10.8-5.1c5-5.9,5.3-12.8,5.3-14.9l-0.1-0.1c-1.9-0.1-8,0.1-13.2,5.8
		c-1.2,1.4-2.2,2.8-2.8,4.1v-20.6c0-0.2,0-0.3,0-0.5c0,0,0-0.2,0-0.5c1.2,0.2,4.4,0.5,7.5-3.2c3.3-3.8,3.5-8.3,3.5-9.7l0-0.1
		c-1.2-0.1-5.2,0.1-8.6,3.8c-1,1.1-1.7,2.3-2.1,3.4c0.4-2.7,1.2-5.8,3-8.2c2.4-3.2,6.2-4.8,11.4-4.8c1.7,0,3.1-1.6,3.1-3.6
		s-1.4-3.6-3.1-3.6c-7.1,0-12.5,2.4-16.1,7.3c-5.7,7.5-4.9,18-4.7,19.9v9.6c-0.7-1.7-1.7-3.5-3.3-5.3c-5.2-5.7-11.4-5.9-13.2-5.8
		l-0.1,0.1c0,2.1,0.3,9,5.3,14.9c4.6,5.4,9.4,5.3,11.3,5v19.6c-0.8-1.4-1.8-2.8-3-4.2c-6.5-7.1-14.1-7.3-16.4-7.2L498,244
		c0,2.6,0.3,11.2,6.6,18.5c5,5.9,10.2,6.5,13,6.3v6.1c0,7.5-5.3,13.6-11.9,13.6h-23.5c-6.3,0-11.5-5.6-11.9-12.7l0.1,0.2
		c1.1,0.3,4.9,0.7,8.5-3.5c3.6-4.2,3.8-9.2,3.8-10.7l-0.1-0.1c-1.3-0.1-5.8,0.1-9.5,4.2c-1.7,1.9-2.5,3.8-2.9,5.5V259
		c0.4,0.2,0.7,0.3,1.1,0.3c10,0,18.2-9.3,18.2-20.7v-18.2c1.6,0.2,4.7-0.1,7.7-3.7c3.6-4.3,3.8-9.2,3.8-10.7l0-0.1
		c-1.3-0.1-5.8,0.1-9.5,4.2c-0.9,0.9-1.5,1.9-2,2.8v-31.5c1.7,0.4,6.8,0.9,11.7-4.9c5-5.9,5.3-12.8,5.3-14.9l-0.1-0.1
		c-1.9-0.1-8,0.1-13.2,5.8c-2,2.2-3.1,4.4-3.7,6.4v-19.6c0-2-1.4-3.6-3.1-3.6c-1.2,0-2.2,0.8-2.8,1.9c-0.6-3-2-6.5-5.1-9.9
		c-6.5-7.1-14.1-7.3-16.5-7.2l-0.1,0.1c0,2.6,0.3,11.2,6.6,18.5c6.3,7.4,12.7,6.5,14.7,6.1l0,0v26.5c-0.7-1.7-1.7-3.5-3.3-5.3
		c-5.2-5.7-11.4-5.9-13.2-5.8l-0.1,0.1c0,2.1,0.3,9,5.3,14.9c4.6,5.4,9.4,5.3,11.3,5v43.3c0,7.5-5.3,13.6-11.9,13.6
		c-0.4,0-0.8,0.1-1.1,0.3v-6c0,0,0,0,0-0.1v-10.6l0,0c1,0.2,4.4,0.7,7.6-3.2c3.3-3.8,3.4-8.3,3.4-9.6l0,0c-1.2-0.1-5.2,0.1-8.6,3.8
		c-1.4,1.5-2.1,3.1-2.5,4.4v-21.7c0-11.4-8.2-20.7-18.2-20.7h-3.3c-0.1-2-0.7-4.7-3.1-7.3c-3.7-4.1-8.1-4.2-9.4-4.1l0,0.1
		c0,1.5,0.2,6.4,3.7,10.5c0.3,0.3,0.5,0.6,0.8,0.9h-10.5c-0.5-3.1-1.9-6.8-5.2-10.4c-6.5-7.1-14.1-7.3-16.4-7.2l-0.1,0.1
		c0,2.6,0.3,11.2,6.6,18.5c5.9,6.9,11.8,6.6,14.2,6.2H452c6.6,0,11.9,6.1,11.9,13.6v10.2c-0.8-2.5-2.2-5.3-4.6-8
		c-6.5-7.1-14.1-7.3-16.4-7.2l-0.1,0.1c0,2.6,0.3,11.2,6.6,18.5c6.2,7.3,12.5,6.6,14.6,6.1v34.4c0,0,0,0,0,0v11.2
		c-0.7-1.6-1.7-3.3-3.2-5c-5.2-5.7-11.4-5.9-13.2-5.8l-0.1,0.1c0,2.1,0.3,9,5.3,14.9c4.5,5.3,9.2,5.3,11.2,5v8.2
		c0,7.5-5.4,13.6-11.9,13.6h-11c2.8-3.6,4.5-8.4,4.5-13.6v-44.5c1.5,0.2,4.7,0.2,7.8-3.5c3.5-4.1,3.7-9,3.7-10.4l0-0.1
		c-1.3-0.1-5.6,0.1-9.3,4.1c-1,1.1-1.7,2.2-2.2,3.3v-6.7c0-11-7.6-20.1-17.2-20.7c-0.5-1.2-1.2-2.4-2.3-3.6
		c-3.7-4.1-8.1-4.2-9.4-4.1l0,0.1c0,1.5,0.2,6.4,3.7,10.5c1.7,2,3.5,3,4.9,3.4c0.6,0.5,1.3,0.9,2,0.9c6.6,0,11.9,6.1,11.9,13.6V254
		c-0.7-1.6-1.6-3.2-3.1-4.8c-5.2-5.7-11.4-5.9-13.2-5.8l-0.1,0.1c0,2.1,0.3,9,5.3,14.9c4.5,5.3,9,5.3,11.1,5v20.3
		c-0.7-2.2-2-4.7-4.2-7.1c-5.9-6.5-12.9-6.7-15-6.6L420,270c0,2.4,0.3,10.1,6,16.8c5.6,6.5,11.3,6,13.2,5.6
		c-0.2,7.3-5.5,13.1-11.9,13.1h-10.4h-14.1v-5.7c1.6,0.3,5.6,0.4,9.4-4.1c4.2-4.9,4.4-10.6,4.4-12.3l-0.1-0.1
		c-1.5-0.1-6.7,0.1-11,4.8c-1.3,1.5-2.2,2.9-2.7,4.3v-29.4c1.5,0.2,4.7,0.2,7.8-3.5c3.5-4.1,3.7-9,3.7-10.4l0-0.1
		c-1.3-0.1-5.6,0.1-9.3,4.1c-1,1.1-1.7,2.2-2.1,3.3c0.3-7.2,5.5-12.9,11.9-12.9c1.7,0,3.1-1.6,3.1-3.6s-1.4-3.6-3.1-3.6
		c-10,0-18.2,9.3-18.2,20.7v11.4c-0.4-1.2-1.1-2.4-2.3-3.7c-3.4-3.8-7.5-3.9-8.8-3.9l0,0.1c0,1.4,0.2,5.9,3.5,9.8
		c3.1,3.7,6.3,3.5,7.6,3.3v31.3h-4.8c-5.7,0-10.4-4.5-11.6-10.6l0.1,0.1c1.3,0.3,5.6,0.9,9.8-4.1c4.2-4.9,4.4-10.6,4.4-12.3
		l-0.1-0.1c-1.5-0.1-6.7,0.1-11,4.8c-2.4,2.6-3.2,5.3-3.5,7.4V247c0,0.2,0.1,0.5,0.1,0.6l0.3,0.3c1.6,0.4,6.8,1,11.8-4.9
		c5-5.9,5.3-12.8,5.3-14.9l-0.1-0.1c-1.9-0.1-8,0.1-13.2,5.8c-2.8,3-3.8,6.1-4.2,8.7v-26.5c0-2-1.4-3.6-3.1-3.6
		c-1.7,0-3.1,1.6-3.1,3.6v45.4c-0.8-2.1-2.1-4.4-4.1-6.6c-6.5-7.1-14.1-7.3-16.5-7.2l-0.1,0.1c0,2.6,0.3,11.2,6.6,18.5
		c5.8,6.8,11.7,6.6,14.1,6.2V292c0,5.2,1.7,9.9,4.5,13.6h-14.8c-5.4,0-10-4.2-11.4-9.8c2.1,0.3,6.6,0.1,11-5
		c5-5.9,5.3-12.8,5.3-14.9l-0.1-0.1c-1.9-0.1-8,0.1-13.2,5.8c-2.6,2.8-3.7,5.8-4.1,8.2c-0.6-0.8-1.4-1.3-2.4-1.3
		c-0.5,0-1,0.2-1.4,0.4c-0.3-1.6-1-3.5-2.7-5.3c-3.4-3.8-7.5-3.9-8.8-3.9l0,0.1c0,1.4,0.2,5.9,3.5,9.8c2.3,2.8,4.7,3.4,6.3,3.4
		c0.4,11,8.4,19.8,18.2,19.8h28.5h4.8v2.3c0,0.7,0,1.4,0.1,2c-2.9-2.2-5.9-2.2-6.9-2.2l0,0c0,1.4,0.2,5.9,3.5,9.8
		c3,3.6,6.1,3.5,7.4,3.3c2.9,4.1,7.2,6.9,12,7.5c-1.6,0.4-3.6,1.4-5.6,3.7c-3.9,4.6-4.1,10-4.1,11.6l0.1,0.1
		c1.4,0.1,6.2-0.1,10.3-4.5c4.1-4.5,3.5-9.2,3.2-10.6l0,0H436c-1,0.5-2,1.3-3,2.5c-3.3,3.9-3.5,8.4-3.5,9.8l0,0
		c1.2,0.1,5.3-0.1,8.7-3.8c3-3.3,3-6.8,2.8-8.4c6,0.7,10.7,6.5,10.7,13.5v21.4c0,7.5-5.3,13.6-11.9,13.6c-1.7,0-3.1,1.6-3.1,3.6
		s1.4,3.6,3.1,3.6c10,0,18.2-9.3,18.2-20.7v-21.4c0-3.1-0.6-6.1-1.7-8.8c7.9-2.2,13.9-10.4,13.9-20.1v-5.8
		C471.9,314.6,474.8,314.2,477.7,310.8z M452.1,333.9c-3.2-3.3-7.5-5.3-12.2-5.3h-0.1c0,0,0,0,0,0h-18.6c0.9-0.5,1.8-1.2,2.7-2.3
		c3.2-3.8,3.4-8.3,3.4-9.6l0,0c-1.2-0.1-5.2,0.1-8.6,3.8c-2.9,3.2-3,6.6-2.8,8.2h-1.2c-6.6,0-11.9-6.1-11.9-13.6v-2.3h14.1h10.4H452
		c4.6,0,8.7-1.9,11.9-5.1v12.8C463.9,327.8,458.6,333.9,452.1,333.9z"/>
	<path class="st0" d="M489.8,154.2c1,0.2,4.4,0.7,7.6-3.2c3.3-3.8,3.4-8.3,3.4-9.6l0,0c-1.2-0.1-5.2,0.1-8.6,3.8
		c-3.4,3.7-2.9,7.7-2.7,8.9L489.8,154.2z"/>
	<path class="st0" d="M591.2,274.5L591.2,274.5c-1.4-0.1-5.9,0-9.7,4.2c-0.6,0.6-1,1.2-1.4,1.8c-0.5-1.3-1.6-2.3-2.9-2.3
		c-1.7,0-3.1,1.6-3.1,3.6v20.7c-0.7-1.8-1.7-3.7-3.4-5.5c-5.2-5.7-11.3-5.9-13.1-5.8l-0.1,0.1c0,2.1,0.3,8.9,5.2,14.8
		c4.6,5.5,9.4,5.3,11.3,4.9c-0.3,7.2-5.5,12.9-11.9,12.9h-29c1-0.7,2.1-1.6,3.2-2.9c4.7-5.5,5-12,4.9-13.9l-0.1-0.1
		c-1.7-0.1-7.5,0.1-12.4,5.4c-4,4.4-4.3,9-4,11.4h-13.5c-6.1,0-11.2-5.3-11.9-12.1h20.3c0.9,0,1.7-0.4,2.3-1.1
		c1.5-0.1,3.5-0.8,5.4-3.2c3.1-3.7,3.3-8,3.3-9.3l0,0c-1.2-0.1-5,0.1-8.2,3.6c-0.9,1-1.5,2-1.9,3c-0.3-0.1-0.5-0.1-0.8-0.1h-25.1
		c-10,0-18.2,9.3-18.2,20.7v45.3c0,11.4,8.2,20.7,18.2,20.7c1.7,0,3.1-1.6,3.1-3.6c0-2-1.4-3.6-3.1-3.6c-6.6,0-11.9-6.1-11.9-13.6
		v-23.2c1.1,0.1,3.1-0.1,5.1-2.4c2.4-2.8,2.5-6.1,2.5-7.1l0,0c-0.9,0-3.8,0.1-6.3,2.8c-0.6,0.6-1,1.2-1.3,1.8v-8.9
		c1.5,0.1,3.9-0.4,6.3-3.2c3.1-3.7,3.3-8,3.3-9.3l0,0c-1.2-0.1-5,0.1-8.2,3.6c-0.5,0.6-0.9,1.1-1.3,1.7v-1.2
		c0-6.9,4.5-12.6,10.4-13.4c0.7,10.7,8.6,19.1,18.1,19.1h27.3c-0.3,2.2-0.2,7.1,4.1,11.8c4.8,5.3,10.5,5.7,12.2,5.6l0.1-0.1
		c0.1-2-0.1-8.5-4.8-14.1c-1.3-1.5-2.6-2.5-3.8-3.3h15.7c10,0,18.2-9.3,18.2-20.7V289c1.7,0,4.4-0.6,7-3.7
		C591.1,281,591.3,276,591.2,274.5z"/>
</g>
<g>
</g>
<g>
</g>
<g>
</g>
<g>
</g>
<g>
</g>
<g>
</g>
<g>
</g>
<g>
</g>
<g>
</g>
<g>
</g>
<g>
</g>
<g>
</g>
<g>
</g>
<g>
</g>
<g>
</g>
</svg>
